<svg xmlns="http://www.w3.org/2000/svg" viewBox="-1.5 7.5 19 19">
  <path fill="#5b6871" d="M2.44,13.41c-.36.16-.6.16-.72-.16l-.88-1.96c-.16-.28-.12-.44.2-.64,1.84-1.2,4.48-1.92,7.17-1.92,1.8,0,4.04.32,5.57,2,.96,1.08,1.52,2.56,1.52,4.88v11.17c0,.28-.2.48-.48.48h-2.72c-.24,0-.48-.2-.48-.48v-.48h-.16c-1.72,1.08-3.24,1.36-5.17,1.36-1.64,0-3.2-.44-4.36-1.36s-1.92-2.32-1.92-4.12c0-2.44,1.44-3.84,3.52-4.69,2.32-.92,5.37-1.2,7.65-1.36v-.48c0-1.32-.2-2.16-.72-2.8-.64-.8-1.68-1.04-2.76-1.04-1.96,0-3.8.72-5.25,1.6ZM11.17,23.74v-4.97c-1.12.04-3.28.16-4.76.6-1.4.44-2.48,1.24-2.48,2.68,0,.96.44,1.64,1.12,2.08.68.4,1.6.6,2.52.6,1.24,0,2.48-.28,3.6-1Z"/>
</svg>
