<svg xmlns="http://www.w3.org/2000/svg" viewBox="0 0 145 70" width="145" height="70">
<path fill="#005CB9" d="M20.081,50.603L15.374,67.55H0L20.081,1.547h19.581L60.239,67.55H44.076l-5.098-16.947H20.081z M36.824,39.449l-4.105-14.004c-1.179-3.927-2.354-8.813-3.338-12.736H29.19c-0.984,3.923-1.959,8.902-3.037,12.736l-3.922,14.004H36.824z M45.913,1.547l3.842,12.528H65.43V67.55h14.899V14.075h17.159v53.177c3.33,0.502,8.813,0.985,16.159,0.985c13.117,0,21.158-2.155,25.955-5.972c4.109-3.329,6.857-8.037,6.857-14.102c0-8.435-5.186-14.131-12.731-16.095v-0.19c7.443-2.846,10.479-7.926,10.479-13.699c0-6.073-3.232-10.582-7.837-13.033c-4.903-2.837-10.399-3.601-19.509-3.601H45.913z M112.276,14.062h6.366c6.76,0,10.348,2.392,10.348,7.396c0,4.886-3.88,6.099-11.815,6.099h-4.898V14.062z M118.061,57.173c-2.549,0-4.322,0-5.785-0.195V38.371h5.094c7.447,0,13.418,2.635,13.418,9.208C130.788,54.526,124.817,57.173,118.061,57.173"/>
</svg>
