<svg xmlns="http://www.w3.org/2000/svg" viewBox="-1.7 0 10.4 10.4">
  <path fill="#eb0f19" d="M 6.7303354,8.3680587 C 6.8929438,7.9725617 6.9714922,7.5467479 6.9604679,7.1195562 6.9756268,6.4911708 6.7592741,5.8779435 6.3527528,5.3970082 5.8993782,4.8981582 5.1235426,4.4833687 4.0486727,4.1677981 3.8405892,4.1140545 3.6380175,4.0410185 3.4423359,3.9514461 3.2728371,3.8687638 3.1212531,3.7557645 2.9930956,3.6179607 2.859426,3.4663767 2.7891459,3.2693171 2.7987919,3.0667454 c 0.00413,-0.2949 0.1694988,-0.5649955 0.4313263,-0.7014214 0.5360568,-0.2356446 1.1465278,-0.2356446 1.6812067,0 0.2384005,0.086816 0.4671547,0.1943033 0.6862629,0.3210828 L 6.5002029,0.88806696 C 6.0964378,0.63864212 5.6623557,0.44709471 5.2062249,0.31618098 4.7363139,0.19491361 4.2540004,0.13290198 3.7689309,0.13290198 3.3072883,0.12463375 2.8484017,0.20042577 2.4143195,0.35614401 2.0284688,0.50635044 1.677069,0.73648292 1.3835469,1.0286267 1.0886465,1.3235271 0.85438019,1.6749269 0.69728365,2.0607776 0.54156541,2.4576526 0.46439527,2.8820884 0.46715152,3.3079022 0.49195603,3.9886533 0.77996594,4.6321969 1.2677917,5.106242 1.7335684,5.5141414 2.2792716,5.8200661 2.8704503,6.0019671 3.1515697,6.1094539 3.4630066,6.2059168 3.6614441,6.281709 c 0.2039496,0.07717 0.3996313,0.1750106 0.581532,0.2949 0.1309137,0.093707 0.2370229,0.2163519 0.3100588,0.3596679 0.06339,0.1364259 0.086816,0.2866319 0.067524,0.4354601 C 4.5998895,7.5977353 4.4910233,7.8071971 4.3187683,7.9546473 4.0362705,8.1599749 3.6890048,8.2550598 3.3417392,8.2233648 2.9310836,8.2123405 2.5273185,8.1158777 2.1552483,7.9394888 1.8300313,7.7837705 1.5144606,7.6087596 1.2099139,7.4144563 L 0.13228813,9.2665397 c 0.85024953,0.6986655 1.91271717,1.0858943 3.01101357,1.0969183 0.5443252,0 1.0858941,-0.08544 1.6026586,-0.254937 C 5.1910664,9.9596931 5.6030999,9.7295606 5.9613899,9.429148 6.2893632,9.1328701 6.5511903,8.7718239 6.7303354,8.3680587 Z m 0,0"/>
</svg>
